<svg width="1265" height="392" viewBox="0 0 1265 392" xmlns="http://www.w3.org/2000/svg" xmlns:xlink="http://www.w3.org/1999/xlink"><title>GOOGLE</title><defs><path id="a" d="M.07 61.64L59.056.033H.07V61.64z"/><path d="M.865 8.474a5.57 5.57 0 0 0 2.559 2.458l12.935 6.114V4.6L8.127.71A5.485 5.485 0 0 0 5.779.18 5.556 5.556 0 0 0 .865 3.167v5.307z" id="c"/><path d="M.556 10.994l84.587 39.984 11.764-.662-7.061-9.561L5.127.709a5.485 5.485 0 0 0-4.57-.06v10.345z" id="e"/><path id="g" d="M.844 12.473l5.299 2.505 11.764-.662-7.061-9.561L.844.027v12.446z"/><path id="i" d="M.719 12.777l.424.201 11.764-.662-7.061-9.561L.719.331v12.446z"/><path d="M2.891 4.477C1.125 6.75.229 9.814.229 13.585c0 3.988.91 7.168 2.707 9.449 1.823 2.318 4.21 3.492 7.09 3.492 2.198 0 4.057-.63 5.54-1.873v.412c0 1.7-.455 2.993-1.353 3.845-.907.859-2.178 1.295-3.777 1.295-2.223 0-4.044-.892-5.569-2.727l-.398-.479-3.093 3.981.221.303c.898 1.234 2.218 2.242 3.923 2.995a12.838 12.838 0 0 0 5.218 1.125c3.352 0 6.062-.95 8.055-2.825 2-1.883 3.016-4.478 3.016-7.711V1.431H16.13l-.171 1.73C14.427 1.721 12.45.993 10.069.993c-2.968 0-5.384 1.172-7.178 3.484zm.829 17.938c-1.653-2.1-2.491-5.071-2.491-8.83 0-3.543.825-6.401 2.45-8.494 1.619-2.084 3.709-3.098 6.39-3.098 2.525 0 4.451.862 5.889 2.635l.766.945.313-3.142h3.771v22.436c0 2.946-.909 5.296-2.701 6.983-1.801 1.694-4.281 2.553-7.369 2.553-1.634 0-3.253-.349-4.814-1.038-1.4-.62-2.505-1.418-3.29-2.375l1.872-2.41c1.631 1.744 3.624 2.626 5.93 2.626 1.863 0 3.365-.528 4.464-1.57 1.105-1.048 1.666-2.586 1.666-4.571v-2.916l-.874.988c-1.424 1.607-3.278 2.39-5.666 2.39-2.595 0-4.657-1.018-6.306-3.112zM6.972 7.638c-1.011 1.464-1.524 3.619-1.524 6.406 0 2.469.513 4.452 1.526 5.895 1.05 1.498 2.528 2.258 4.39 2.258 2.299 0 4.028-1.015 5.138-3.013l.064-.112V8.405l-.063-.113c-1.082-1.956-2.796-2.947-5.097-2.947-1.891 0-3.384.771-4.434 2.293zm.821 11.727c-.892-1.272-1.344-3.062-1.344-5.321 0-2.58.453-4.544 1.346-5.838.865-1.253 2.046-1.861 3.611-1.861 1.892 0 3.254.759 4.16 2.321V18.81c-.934 1.605-2.309 2.387-4.202 2.387-1.539 0-2.707-.599-3.571-1.832z" id="k"/><path d="M19.254 130.412C7.399 116.891.203 98.906.203 78.47.203 33.342 34.829.603 77.314.603c7.218 0 14.21.945 20.844 2.736v33.507a41.63 41.63 0 0 0-20.844-5.57c-23.28 0-43.357 19.172-43.357 47.193 0 27.723 20.077 47.19 43.357 47.19 7.462 0 14.595-2 20.844-5.632v10.385H19.254z" id="m"/><path d="M26.372 137.512C10.34 123.527.203 102.725.203 78.469.203 33.342 34.829.603 77.314.603c9.811 0 19.204 1.746 27.847 4.988v36.306c-7.627-6.77-17.415-10.621-27.847-10.621-23.28 0-43.357 19.172-43.357 47.193 0 27.723 20.077 47.19 43.357 47.19 10.432 0 20.22-3.91 27.847-10.72v22.573H26.372z" id="o"/><path d="M35.944 144.611C14.478 131.176.203 107.255.203 78.47.203 33.342 34.829.603 77.314.603c12.53 0 24.376 2.848 34.852 8.022V49.83c-8.013-11.62-20.854-18.554-34.852-18.554-23.28 0-43.357 19.172-43.357 47.193 0 27.723 20.077 47.19 43.357 47.19 13.998 0 26.84-7.04 34.852-18.681v37.633H35.944z" id="q"/><path d="M50.56 151.712C21.204 141.139.204 113.382.204 78.469.203 33.342 34.829.603 77.314.603c15.412 0 29.79 4.309 41.856 11.955v53.075c-5.067-20.876-22.336-34.357-41.856-34.357-23.28 0-43.357 19.172-43.357 47.193 0 27.723 20.077 47.19 43.357 47.19 19.52 0 36.79-13.689 41.856-34.456v53.1a76.187 76.187 0 0 1-15.104 7.409H50.561z" id="s"/><path d="M51.046 151.885C21.435 141.445.203 113.575.203 78.469.203 33.342 34.829.603 77.314.603c15.485 0 29.926 4.35 42.027 12.064V66.36c-4.839-21.289-22.281-35.084-42.027-35.084-23.28 0-43.357 19.172-43.357 47.193 0 27.723 20.077 47.19 43.357 47.19 19.746 0 37.188-14.007 42.027-35.18v53.716a76.2 76.2 0 0 1-15.76 7.69H51.046z" id="u"/><path d="M126.346 139.121c-13.34 10.88-30.433 17.211-49.032 17.211-42.485 0-77.111-33.031-77.111-77.863C.203 33.342 34.829.603 77.314.603c18.599 0 35.691 6.275 49.032 17.116v121.402zM33.957 78.47c0-28.021 20.077-47.193 43.357-47.193 23.278 0 43.355 19.172 43.355 47.193 0 27.723-20.077 47.19-43.355 47.19-23.28 0-43.357-19.467-43.357-47.19z" id="w"/><path d="M133.35 132.627c-14.072 14.815-33.997 23.705-56.036 23.705-42.485 0-77.111-33.031-77.111-77.863C.203 33.342 34.829.603 77.314.603c22.04 0 41.964 8.811 56.037 23.592v108.432zM33.958 78.469c0-28.021 20.077-47.193 43.357-47.193 23.278 0 43.355 19.172 43.355 47.193 0 27.723-20.077 47.19-43.355 47.19-23.28 0-43.357-19.467-43.357-47.19z" id="y"/><path d="M140.355 124.075c-13.978 19.882-37.037 32.257-63.041 32.257-42.485 0-77.111-33.031-77.111-77.863C.203 33.342 34.829.603 77.314.603c26.004 0 49.063 12.266 63.04 32.13v91.342zM33.957 78.469c0-28.021 20.077-47.193 43.357-47.193 23.278 0 43.355 19.172 43.355 47.193 0 27.723-20.077 47.19-43.355 47.19-23.28 0-43.357-19.467-43.357-47.19z" id="A"/><path d="M147.36 105.823c-12.234 26.924-39.048 44.509-70.046 44.509-42.485 0-77.111-33.031-77.111-77.863 0-33.727 19.34-60.534 46.849-71.926h60.523c17.557 7.271 31.787 20.822 39.785 38.444v66.836zM33.957 72.469c0-28.021 20.077-47.193 43.357-47.193 23.278 0 43.355 19.172 43.355 47.193 0 27.723-20.077 47.19-43.355 47.19-23.28 0-43.357-19.467-43.357-47.19z" id="C"/><path d="M154.363 68.677c-1.607 43.19-35.586 74.655-77.049 74.655-42.485 0-77.111-33.031-77.111-77.863 0-27.997 13.327-51.225 33.59-64.826h87.04c19.479 13.075 32.548 35.046 33.53 61.598v6.436zM33.957 65.47c0-28.021 20.077-47.193 43.357-47.193 23.278 0 43.355 19.172 43.355 47.193 0 27.723-20.077 47.19-43.355 47.19-23.28 0-43.357-19.467-43.357-47.19z" id="E"/><path d="M154.031 73.652c-3.924 40.61-36.863 69.68-76.717 69.68-42.485 0-77.111-33.031-77.111-77.863 0-28.228 13.549-51.61 34.095-65.162h86.03c18.513 12.212 31.346 32.403 33.703 56.93v16.415zM33.957 65.469c0-28.021 20.077-47.193 43.357-47.193 23.278 0 43.355 19.172 43.355 47.193 0 27.723-20.077 47.19-43.355 47.19-23.28 0-43.357-19.467-43.357-47.19z" id="G"/><path d="M129.472.406C144.8 14.33 154.423 34.678 154.423 58.47c0 44.832-34.626 77.863-77.109 77.863-42.485 0-77.111-33.031-77.111-77.863 0-23.792 9.624-44.14 24.95-58.063h104.32zM33.957 58.47c0-28.021 20.077-47.193 43.357-47.193 23.278 0 43.355 19.172 43.355 47.193 0 27.723-20.077 47.19-43.355 47.19-23.28 0-43.357-19.467-43.357-47.19z" id="I"/><path d="M136.32.506c11.29 13.366 18.103 30.946 18.103 50.963 0 44.832-34.626 77.863-77.109 77.863-42.485 0-77.111-33.031-77.111-77.863 0-20.017 6.813-37.597 18.103-50.963H136.32zM33.958 51.47c0-28.021 20.077-47.193 43.357-47.193 23.278 0 43.355 19.172 43.355 47.193 0 27.723-20.077 47.19-43.355 47.19-23.28 0-43.357-19.467-43.357-47.19z" id="K"/><path d="M.633 68.153c9.74 32.306 39.108 54.179 73.681 54.179 42.483 0 77.109-33.031 77.109-77.863 0-16.648-4.712-31.61-12.793-43.863H90.667c15.591 6.643 27.002 22.738 27.002 43.863 0 27.723-20.077 47.19-43.355 47.19-23.28 0-43.357-19.467-43.357-47.19 0-21.125 11.411-37.22 27.003-43.863H9.996a76.313 76.313 0 0 0-9.363 20.07v47.477z" id="M"/><path d="M.638 77.381c13.38 23.186 38.271 37.951 66.676 37.951 42.483 0 77.109-33.031 77.109-77.863 0-13.556-3.125-25.995-8.649-36.764h-40.83c9.516 8.334 15.725 21.18 15.725 36.764 0 27.723-20.077 47.19-43.355 47.19-23.28 0-43.357-19.467-43.357-47.19 0-15.583 6.21-28.43 15.726-36.764H.638v76.676z" id="O"/><path d="M.642 80.51c14.158 17.27 35.66 27.822 59.672 27.822 42.483 0 77.109-33.031 77.109-77.863 0-10.67-1.936-20.647-5.453-29.663H94.439c5.747 7.855 9.23 17.991 9.23 29.663 0 27.723-20.077 47.19-43.355 47.19-23.28 0-43.357-19.467-43.357-47.19 0-11.672 3.483-21.808 9.23-29.663H.643V80.51z" id="Q"/><path d="M.642 80.51c14.158 17.27 35.66 27.822 59.672 27.822 42.483 0 77.109-33.031 77.109-77.863 0-10.67-1.936-20.647-5.453-29.663H94.439c5.747 7.855 9.23 17.991 9.23 29.663 0 27.723-20.077 47.19-43.355 47.19-23.28 0-43.357-19.467-43.357-47.19 0-11.672 3.483-21.808 9.23-29.663H.643V80.51z" id="S"/><path d="M.647 80.96c13.799 12.805 32.333 20.372 52.667 20.372 42.483 0 77.109-33.031 77.109-77.863 0-7.942-1.072-15.5-3.071-22.564H91.698c3.162 6.538 4.971 14.152 4.971 22.564 0 27.723-20.077 47.19-43.355 47.19-23.28 0-43.357-19.467-43.357-47.19 0-8.412 1.81-16.026 4.971-22.564H.647V80.96z" id="U"/><path id="W" d="M.283 53.115h51.674V.738H.283z"/><path id="Y" d="M.283 53.115h51.674V.738H.283z"/><path id="aa" d="M0 761h1359.321V.313H0z"/><path id="ac" d="M.696 11.597l11.741 5.163 4.167-9.736L.696.028v11.569z"/><path id="ae" d="M.942 11.633L44.437 30.76l4.167-9.736L.942.065v11.568z"/></defs><g fill="none" fill-rule="evenodd"><path fill="#FFF" d="M1334.653 160.606l-82.61 86.284-112.231-110.397 65.612-68.529 16.855 9.948 17.888-10.248z"/><path fill="#ECEFF1" d="M1169.356 156.157l.394.39 73.857-76.9-.395-.39zm4.736 4.673l.394.39 73.857-76.9-.395-.39z"/><path fill="#ECEFF1" d="M1174.092 160.83l.394.39 73.857-76.9-.395-.39zm4.736 4.673l.394.39 73.857-76.9-.395-.389z"/><path fill="#ECEFF1" d="M1178.828 165.503l.394.39 73.857-76.9-.395-.389zm4.736 4.673l.394.389 73.857-76.899-.395-.389z"/><path fill="#ECEFF1" d="M1183.564 170.176l.394.389 73.857-76.899-.395-.389zm4.736 4.673l.393.39 73.856-76.9-.394-.39zm4.735 4.673l.394.39 73.856-76.9-.394-.39z"/><path fill="#ECEFF1" d="M1193.035 179.522l.394.39 73.856-76.9-.394-.39zm4.735 4.673l.395.39 73.856-76.9-.394-.39z"/><path fill="#ECEFF1" d="M1197.77 184.195l.395.39 73.856-76.9-.394-.39zm4.736 4.673l.395.39 73.856-76.9-.394-.389z"/><path fill="#ECEFF1" d="M1202.506 188.868l.395.39 73.856-76.9-.394-.389zm4.736 4.672l.395.39 73.856-76.898-.394-.39zm4.735 4.674l.395.39 73.856-76.9-.394-.39z"/><path fill="#ECEFF1" d="M1211.977 198.214l.395.39 73.856-76.9-.394-.39zm4.736 4.673l.395.39 73.856-76.9-.395-.39zm4.737 4.673l.394.39 73.856-76.9-.395-.389z"/><path fill="#ECEFF1" d="M1221.45 207.56l.394.39 73.856-76.9-.395-.389zm4.735 4.673l.395.39 73.856-76.899-.395-.39zm4.735 4.673l.395.39 73.857-76.9-.395-.39z"/><path fill="#ECEFF1" d="M1230.92 216.906l.395.39 73.857-76.9-.395-.39zm4.737 4.673l.394.39 73.857-76.9-.395-.39z"/><path fill="#ECEFF1" d="M1235.657 221.579l.394.39 73.857-76.9-.395-.39zm4.735 4.673l.394.39 73.857-76.9-.395-.389z"/><path fill="#ECEFF1" d="M1240.392 226.252l.394.39 73.857-76.9-.395-.389zm4.736 4.673l.394.39 73.856-76.9-.394-.389zm4.736 4.673l.394.39 73.856-76.9-.394-.39z"/><path fill="#ECEFF1" d="M1249.864 235.598l.394.39 73.856-76.9-.394-.39zm83.722-67.163l-73.856 76.899-.395-.39 73.856-76.898z"/><path fill="#ECEFF1" d="M1333.586 168.435l-73.856 76.899-.395-.39 73.856-76.898z"/><g transform="translate(1264 172.687)"><mask id="b" fill="#fff"><use xlink:href="#a"/></mask><path fill="#ECEFF1" mask="url(#b)" d="M74.321.42L.465 77.32l-.395-.39L73.926.032z"/></g><path fill="#CFD8DC" d="M1205.424 67.964l17.745 17.455 17.002-17.76z"/><path d="M1174.08 549.296l-141.878-30.822c-5.4-1.174-8.84-6.562-7.682-12.036l45.313-214.298c1.157-5.473 6.473-8.96 11.873-7.787l141.88 30.823c5.4 1.173 8.839 6.561 7.682 12.035l-45.313 214.298c-1.158 5.474-6.474 8.96-11.874 7.787" fill="#78909C"/><path fill="#FFF" d="M1177.832 536.926l-144.05-31.294 44.174-208.907 144.049 31.294z"/><path d="M1154.145 296.668c-3.086-.67-5.052-3.75-4.391-6.878.662-3.128 3.7-5.121 6.786-4.45 3.087.67 5.052 3.75 4.39 6.878-.661 3.128-3.7 5.12-6.785 4.45zm14.16-2.164c1.544-7.3-3.043-14.485-10.244-16.05-7.201-1.564-14.29 3.085-15.833 10.385l-18.007-3.912-6.116 28.926 62.09 13.488 6.117-28.925-18.006-3.912z" fill="#37474F"/><path d="M1103.846 340.442l-84.719-40.046c-2.786-1.316-6.096-.095-7.395 2.728-1.298 2.823-.094 6.179 2.691 7.495l84.72 40.046 11.765-.662-7.062-9.561z" fill="#F17000"/><g transform="translate(1011 299.687)"><mask id="d" fill="#fff"><use xlink:href="#c"/></mask><path fill="#FFECB3" mask="url(#d)" d="M11.369-5.309L.865 17.522l4.99 2.36L16.359-2.95z"/></g><g transform="translate(1014 299.687)"><mask id="f" fill="#fff"><use xlink:href="#e"/></mask><path fill="#FFCB28" mask="url(#f)" d="M19.526-16.215L.556 25.017l79.288 37.479 18.97-41.233z"/></g><g transform="translate(1093 335.687)"><mask id="h" fill="#fff"><use xlink:href="#g"/></mask><path fill="#FFECB3" mask="url(#h)" d="M19.814-14.737L.844 26.495l5.043 2.384 18.97-41.232z"/></g><g transform="translate(1098 337.687)"><mask id="j" fill="#fff"><use xlink:href="#i"/></mask><path fill="#313F46" mask="url(#j)" d="M19.689-14.432L.719 26.799l5.043 2.384 18.97-41.231z"/></g><path d="M346.475 337.058l2.953-.942-2.953.942z" fill="#455A64"/><path d="M401.865 440.48l-37.556 11.995c-4.948 1.58-10.271-1.23-11.83-6.245l-31.94-102.742c-1.558-5.015 1.214-10.41 6.162-11.99l37.556-11.996c4.947-1.58 10.27 1.23 11.83 6.245l31.939 102.742c1.559 5.015-1.214 10.411-6.161 11.991" fill="#78909C"/><path fill="#CFD8DC" d="M404.393 424.102l-50.93 16.266-29.018-93.345 50.93-16.267z"/><path d="M330.142 336.327a1.695 1.695 0 0 1-1.09 2.12 1.664 1.664 0 0 1-2.09-1.104 1.695 1.695 0 0 1 1.089-2.12 1.664 1.664 0 0 1 2.09 1.104" fill="#455A64"/><path d="M352.767 329.987l-12.153 3.882a.595.595 0 0 1-.747-.395.605.605 0 0 1 .39-.757l12.152-3.881c.314-.1.648.076.747.394a.605.605 0 0 1-.389.757" fill="#D0D2D3"/><path d="M349.715 337.036l-2.953.943a.95.95 0 0 1-1.195-.63.969.969 0 0 1 .622-1.212l2.953-.943a.95.95 0 0 1 1.195.631.968.968 0 0 1-.622 1.211" fill="#455A64"/><path d="M258.704 1.666c-31.78 0-61.906 12.544-84.831 35.323-23.032 22.883-35.716 53.106-35.716 85.103 0 31.998 12.684 62.223 35.716 85.105 22.925 22.779 53.052 35.322 84.83 35.322 34.238 0 61.342-11.043 82.86-33.762 24.439-24.772 28.087-58.832 28.087-76.93 0-7.02-.58-13.84-1.68-19.754H259.773v32.034h77.434l-.072.565c-2.296 17.853-8.298 31.809-17.841 41.48-21.52 21.813-44.886 24.334-60.59 24.334-23.284 0-44.997-9.18-61.137-25.849-16.064-16.59-24.911-38.803-24.911-62.544 0-23.742 8.847-45.954 24.91-62.544 16.14-16.669 37.854-25.848 61.139-25.848 22.496 0 42.265 7.87 58.768 23.395l22.288-22.592C316.779 12.409 290.26 1.667 258.705 1.667m0 241.853c-32.045 0-62.422-12.648-85.536-35.614-23.222-23.07-36.011-53.548-36.011-85.814 0-32.265 12.789-62.74 36.01-85.814C196.283 13.314 226.66.667 258.705.667c31.993 0 58.854 10.948 82.114 33.468l.363.352-23.686 24.008-.356-.337C300.757 42.593 281.097 34.7 258.704 34.7c-23.013 0-44.47 9.07-60.42 25.543-15.882 16.404-24.63 38.368-24.63 61.849 0 23.48 8.748 45.445 24.63 61.849 15.95 16.472 37.408 25.544 60.42 25.544 32.413 0 49.697-13.717 59.878-24.037 9.284-9.41 15.166-22.98 17.486-40.342h-77.296v-34.034h110.027l.078.407c1.16 6.068 1.773 13.103 1.773 20.347 0 18.251-3.685 52.606-28.368 77.625-21.71 22.921-49.052 34.067-83.578 34.067m536.461-125.055c-23.706 0-42.275 20.64-42.275 46.987 0 26.016 18.569 46.395 42.275 46.395 23.104 0 40.528-19.945 40.528-46.395 0-26.787-17.424-46.987-40.528-46.987zm0 94.382c-24.267 0-43.275-20.819-43.275-47.395 0-26.909 19.008-47.987 43.275-47.987 23.675 0 41.528 20.63 41.528 47.987 0 27.02-17.853 47.395-41.528 47.395zm-69.767 54.333c8.758 20.98 31.569 45.243 67.438 45.243 20.832 0 38.47-6.516 51.009-18.844 14.286-14.044 21.529-34.825 21.529-61.766V92.508h-31.01v12.684h-1.898l-.15-.182c-6.888-8.325-21.03-17.22-40.061-17.22-39.635 0-73.12 35.564-73.12 77.66 0 41.776 33.485 77.07 73.12 77.07 19.185 0 33.27-9.045 40.056-17.509l.15-.188h1.903v11.708c0 29.371-15.137 46.216-41.528 46.216-20.108 0-33.264-14.153-38.967-27.57l-28.471 12.001zm67.438 46.243c-36.625 0-59.818-24.953-68.552-46.32l-.187-.459 30.309-12.777.193.466c5.47 13.254 18.39 27.416 38.237 27.416 25.756 0 40.528-16.48 40.528-45.216v-10.708h-.424c-6.986 8.591-21.287 17.696-40.685 17.696-40.177 0-74.12-35.75-74.12-78.069 0-42.638 33.943-78.66 74.12-78.66 19.24 0 33.593 8.953 40.68 17.402h.429V91.508h33.01v140.303c0 27.218-7.344 48.24-21.828 62.48-12.73 12.515-30.61 19.13-51.71 19.13z" fill="#546E7A"/><path fill="#F44336" d="M550.118 226.75h-.247v-12.005h-.5v12.005h-12.698v-12.005h-.5v25.003h.5V227.25h12.698v12.498h.5V227.25h.247zm-2.5-135.751h1V68.606h-1zm156.5-22.392V79.5h-155v1h155V91h1V68.607zm404.497 24.406v-1h-22.092v1h10.808v156.282h-10.808v1h22.092v-1h-10.284V93.013zm85.898 71.22l-4.69 1.805-5.198-5.415 7.46-2.87z"/><path d="M1203.665 149.902c.953-1.766 3.037-3.437 5.096-4.226l73.943-28.387c2.879-1.105 5.912-.126 6.775 2.186l2.807 7.52c.863 2.31-.771 5.078-3.65 6.182l-74.18 28.447c-2.06.79-4.5.82-6.367.136l-2.44-.546c-.806-.18-1.706-.103-2.544.218l-9.53 3.655-2.752-7.375 8.965-3.438c.907-.348 1.678-.957 2.16-1.706l1.717-2.666z" fill="#EF9A9B"/><path d="M1161.139 222.701c.634 1.46-.02 3.165-1.461 3.808a2.836 2.836 0 0 1-3.757-1.48c-.634-1.46.02-3.166 1.461-3.809 1.44-.642 3.122.021 3.756 1.481zm1.06 26.353l126.085-56.232-12.626-29.086-126.084 56.233 12.625 29.085z" fill="#FFCB28"/><g fill="#78909C"><path d="M1164.13 235.57l4.59 10.576-.868.387-4.592-10.576zm5.774 3.737l2.296 5.288-.87.388-2.296-5.288zm3.478-1.552l2.296 5.288-.87.388-2.296-5.288zm1.182-6.839l4.591 10.577-.869.387-4.592-10.576zm5.774 3.737l2.296 5.288-.87.388-2.296-5.288zm3.478-1.551l2.296 5.288-.87.388-2.296-5.288zm1.183-6.84l4.59 10.577-.868.387-4.592-10.576zm5.705 3.768l2.296 5.288-.87.388-2.296-5.288zm3.478-1.552l2.296 5.288-.87.389-2.296-5.288zm1.183-6.839l4.59 10.577-.868.387-4.592-10.576zm5.774 3.737l2.296 5.288-.87.388-2.296-5.288zm3.478-1.551l2.296 5.288-.87.388-2.296-5.288zm1.183-6.84l4.59 10.577-.869.387-4.592-10.576z"/><path d="M1205.8 216.985l4.59 10.577-.869.387-4.592-10.576zm5.773 3.737l2.296 5.288-.87.388-2.296-5.288zm3.478-1.551l2.296 5.288-.87.388-2.296-5.288zm1.183-6.839l4.59 10.577-.868.387-4.592-10.576zm5.774 3.737l2.296 5.288-.87.388-2.296-5.288zm3.478-1.552l2.296 5.288-.87.388-2.296-5.288zm1.183-6.839l4.59 10.577-.868.387-4.592-10.576zm5.704 3.768l2.296 5.288-.87.388-2.295-5.288zm3.479-1.552l2.296 5.288-.87.388-2.296-5.288zm1.182-6.839l4.591 10.577-.869.387-4.592-10.576zm5.774 3.737l2.296 5.288-.87.388-2.296-5.288zm3.478-1.552l2.296 5.289-.87.388-2.296-5.288zm1.183-6.839l4.59 10.577-.868.387-4.592-10.576z"/><path d="M1247.469 198.401l4.59 10.577-.868.387-4.592-10.576zm5.774 3.737l2.296 5.288-.87.388-2.296-5.288zm3.477-1.551l2.297 5.288-.87.388-2.296-5.288zm1.184-6.84l4.59 10.577-.868.387-4.592-10.576zm5.773 3.738l2.296 5.288-.87.388-2.296-5.288z"/></g><path fill="#A5D6A7" d="M969.235 334.017l26.997 41.671-41.023 27.16-26.997-41.67z"/><path fill="#C8E6C9" d="M972.37 338.856l26.996 41.671-41.023 27.16-26.997-41.671z"/><path d="M971.658 337.236l.13.202-41.26 27.316-.13-.201zm-.523-.806l.131.201-41.26 27.316-.13-.2zm-.522-.807l.13.202-41.26 27.316-.13-.201zm-.523-.806l.131.202-41.26 27.316-.13-.201z" fill="#607D8B"/><path fill="#C8E6C9" d="M840.037 316.39h51.674v-52.378h-51.674z"/><path fill="#FFF" d="M856.651 268.305h21.457v-8.586h-21.457z"/><path d="M865.407 280.032c-1.565 0-2.747.608-3.612 1.86-.893 1.295-1.346 3.259-1.346 5.839 0 2.26.452 4.05 1.344 5.322.864 1.232 2.032 1.83 3.57 1.83 1.894 0 3.27-.781 4.203-2.386v-10.144c-.906-1.561-2.267-2.321-4.16-2.321zm-.043 15.852c-1.862 0-3.34-.76-4.39-2.257-1.012-1.444-1.525-3.427-1.525-5.896 0-2.787.513-4.942 1.523-6.406 1.05-1.522 2.542-2.293 4.435-2.293 2.3 0 4.015.99 5.097 2.947l.062.114v10.666l-.063.113c-1.112 1.998-2.84 3.012-5.14 3.012zm-8.73 8.794c.785.957 1.89 1.753 3.29 2.374a11.86 11.86 0 0 0 4.814 1.039c3.089 0 5.568-.86 7.369-2.554 1.792-1.687 2.7-4.036 2.7-6.983v-22.436h-3.77l-.314 3.142-.765-.945c-1.438-1.772-3.364-2.635-5.89-2.635-2.68 0-4.77 1.014-6.39 3.098-1.625 2.093-2.45 4.95-2.45 8.494 0 3.759.839 6.73 2.492 8.83 1.649 2.094 3.71 3.112 6.306 3.112 2.389 0 4.24-.783 5.666-2.39l.874-.988v2.916c0 1.985-.56 3.523-1.666 4.57-1.098 1.043-2.6 1.57-4.464 1.57-2.306 0-4.3-.881-5.93-2.625l-1.871 2.41zm8.104 4.413c-1.773 0-3.53-.378-5.218-1.125-1.705-.754-3.025-1.762-3.923-2.996l-.221-.303 3.094-3.981.397.479c1.524 1.835 3.347 2.727 5.569 2.727 1.6 0 2.87-.435 3.777-1.295.898-.851 1.353-2.145 1.353-3.845v-.412c-1.483 1.244-3.342 1.874-5.54 1.874-2.88 0-5.266-1.175-7.091-3.493-1.796-2.281-2.706-5.46-2.706-9.45 0-3.77.896-6.834 2.66-9.106 1.796-2.313 4.212-3.485 7.18-3.485 2.382 0 4.358.729 5.89 2.168l.172-1.73h5.677v23.436c0 3.234-1.014 5.829-3.015 7.71-1.992 1.876-4.702 2.827-8.055 2.827z" fill="#546E7A"/><g transform="translate(854 273.687)"><mask id="l" fill="#fff"><use xlink:href="#k"/></mask><path fill="#546E7A" mask="url(#l)" d="M-7.191 5.97H35.29v-.25H-7.191zm0 1.926H35.29v-.25H-7.191zm0 1.925H35.29v-.25H-7.191zm0 1.926H35.29v-.25H-7.191z"/><path fill="#546E7A" mask="url(#l)" d="M-7.191 9.821H35.29v-.25H-7.191zm0-5.777H35.29v-.25H-7.191zm0-1.926H35.29v-.25H-7.191z"/><path fill="#546E7A" mask="url(#l)" d="M-7.191 2.118H35.29v-.25H-7.191zm0 11.555H35.29v-.25H-7.191zm0 1.926H35.29v-.25H-7.191zm0 1.925H35.29v-.25H-7.191zm0 1.926H35.29v-.25H-7.191zm0 1.926H35.29v-.25H-7.191zm0 1.927H35.29v-.25H-7.191zm0 1.926H35.29v-.25H-7.191zm0 1.925H35.29v-.25H-7.191zm0 1.926H35.29v-.25H-7.191zm0 1.926H35.29v-.25H-7.191zm0 1.926H35.29v-.25H-7.191zm0 1.925H35.29v-.25H-7.191zm0-29.85H35.29v-.25H-7.191zm0 1.926H35.29v-.25H-7.191zm0 1.925H35.29v-.25H-7.191zm0 1.926H35.29v-.25H-7.191z"/><path fill="#546E7A" mask="url(#l)" d="M-7.191 8.858H35.29v-.25H-7.191z"/><path d="M11.407 5.382c-1.565 0-2.747.608-3.612 1.86-.893 1.295-1.346 3.259-1.346 5.839 0 2.26.452 4.05 1.344 5.322.864 1.232 2.032 1.83 3.57 1.83 1.894 0 3.27-.781 4.203-2.386V7.703c-.906-1.561-2.267-2.321-4.16-2.321zm-.043 15.852c-1.862 0-3.34-.76-4.39-2.257-1.012-1.444-1.525-3.427-1.525-5.896 0-2.787.513-4.942 1.523-6.406 1.05-1.522 2.542-2.293 4.435-2.293 2.3 0 4.015.99 5.097 2.947l.062.114v10.666l-.063.113c-1.112 1.998-2.84 3.012-5.14 3.012zm-8.73 8.794c.785.957 1.89 1.753 3.29 2.374a11.86 11.86 0 0 0 4.814 1.039c3.089 0 5.568-.86 7.369-2.554 1.792-1.687 2.7-4.036 2.7-6.983V1.468h-3.77l-.314 3.142-.765-.945c-1.438-1.772-3.364-2.635-5.89-2.635-2.68 0-4.77 1.014-6.39 3.098-1.625 2.093-2.45 4.95-2.45 8.494 0 3.759.839 6.73 2.492 8.83 1.649 2.094 3.71 3.112 6.306 3.112 2.389 0 4.24-.783 5.666-2.39l.874-.988V24.1c0 1.985-.56 3.524-1.666 4.572-1.098 1.042-2.6 1.569-4.464 1.569-2.306 0-4.3-.881-5.93-2.625l-1.871 2.41zm8.104 4.413c-1.773 0-3.53-.378-5.218-1.125-1.705-.754-3.025-1.762-3.923-2.996l-.221-.303 3.094-3.981.397.479c1.524 1.835 3.347 2.727 5.569 2.727 1.6 0 2.87-.435 3.777-1.295.898-.851 1.353-2.146 1.353-3.846v-.411c-1.483 1.244-3.342 1.874-5.54 1.874-2.88 0-5.266-1.175-7.091-3.493C1.139 19.79.229 16.61.229 12.62c0-3.77.896-6.834 2.66-9.106C4.686 1.202 7.102.03 10.07.03c2.382 0 4.358.729 5.89 2.168l.172-1.73h5.677v23.436c0 3.234-1.014 5.829-3.015 7.71-1.992 1.876-4.702 2.827-8.055 2.827z" fill="#546E7A" mask="url(#l)"/><path fill="#546E7A" mask="url(#l)" d="M-7.191 3.081H35.29v-.25H-7.191zm0-1.926H35.29v-.25H-7.191zm0 11.555H35.29v-.25H-7.191zm0 1.926H35.29v-.25H-7.191zm0 1.926H35.29v-.25H-7.191zm0 1.925H35.29v-.25H-7.191zm0 1.926H35.29v-.25H-7.191zm0 1.926H35.29v-.25H-7.191zm0 1.927H35.29v-.25H-7.191zm0 1.925H35.29v-.25H-7.191zm0 1.926H35.29v-.25H-7.191zm0 1.926H35.29v-.25H-7.191zm0 1.926H35.29v-.25H-7.191zm0 1.926H35.29v-.25H-7.191z"/></g><path fill="#FFB300" d="M43.339 146.228l-22.07-47.361 46.726-22.37 22.069 47.362z"/><path fill="#FFD54F" d="M40.776 140.729L18.707 93.368l46.725-22.37 22.07 47.362z"/><path d="M41.282 142.521l-.107-.229 46.995-22.498.107.23zm.428.917l-.108-.23 46.995-22.497.107.229zm.426.916l-.107-.229 46.995-22.498.107.23zm.427.916l-.107-.228 46.995-22.498.107.229z" fill="#607D8B"/><path d="M1012.941 117.875c-9.609 0-20.229 4.786-27.713 12.49-5.62 5.786-12.208 15.953-11.959 31.684l67.539-28.429c-3.936-9.438-15.058-15.745-27.867-15.745zm-40.634 45.665l-.021-.73c-.479-16.498 6.384-27.127 12.224-33.14 7.667-7.893 18.561-12.795 28.431-12.795 13.421 0 25.067 6.766 28.98 16.834l.177.453-69.791 29.377zm39.469-75.75c-41.02 0-71.953 33.26-71.953 77.365 0 21.085 7.675 40.602 21.609 54.953 14.033 14.452 33.255 22.411 54.126 22.411 36.326 0 56.216-23.351 63.326-33.873l-25.362-17.138c-9.804 14.355-22.227 21.338-37.964 21.338-17.288 0-29.617-7.808-37.691-23.87l-.241-.48 102.76-43.08-3.312-8.392c-3.029-8.23-20.391-49.234-65.298-49.234zm3.782 155.73c-21.143 0-40.621-8.068-54.844-22.715-14.117-14.538-21.891-34.303-21.891-55.65 0-44.675 31.363-78.365 72.953-78.365 45.571 0 63.167 41.549 66.231 49.877l3.668 9.291-.451.19-102.221 42.855c7.891 15.37 19.854 22.843 36.555 22.843 15.529 0 27.768-6.971 37.415-21.312l.281-.414 27.014 18.255-.275.413c-6.95 10.442-27.142 34.731-64.435 34.731z" fill="#546E7A"/><path fill="#FFD54F" d="M981.271 107.406h51.675V55.028h-51.675z"/><path fill="#FFF" d="M996.118 59.321h21.457v-8.586h-21.457z"/><path fill="#78909C" d="M1007.393 68.493h.5v-6.26h-.5zm-3.603 1.184l-4.366-4.426.355-.35 4.366 4.424zm7.39 0l-.356-.352 4.366-4.425.355.351z"/><path d="M1001.573 74.029c-9.305 6.428 1.41 19.816 1.41 19.816l4.896.08 4.896.082s11.141-13.025 2.05-19.758c-3.884-2.875-9.279-2.965-13.252-.22" fill="#FFCB28"/><path d="M1003.106 93.596l9.554.158c.702-.855 6.1-7.648 5.425-13.599-.26-2.304-1.409-4.223-3.41-5.705-3.772-2.794-9.1-2.882-12.96-.215-2.047 1.414-3.256 3.294-3.592 5.586-.87 5.93 4.308 12.897 4.983 13.775zm9.782.662l-10.028-.166-.073-.092c-.25-.312-6.117-7.73-5.16-14.252.358-2.435 1.637-4.428 3.804-5.925 4.034-2.786 9.601-2.693 13.541.224 2.118 1.57 3.333 3.606 3.611 6.053.742 6.55-5.358 13.765-5.618 14.068l-.077.09zm-10.006 3.422l9.868.164.03-1.835-9.869-.164-.029 1.835zm10.36.672l-10.868-.18.045-2.835 10.87.18-.047 2.835zm-10.416 2.832l9.868.164.03-1.836-9.87-.164-.028 1.836zm10.36.672l-10.868-.18.045-2.836 10.869.18-.046 2.836z" fill="#78909C"/><g transform="translate(382 86.687)"><mask id="n" fill="#fff"><use xlink:href="#m"/></mask><path fill="#546E7A" mask="url(#n)" d="M-73.078 130.412l-.177-.176L97.98-43.329l.177.176z"/></g><g transform="translate(382 86.687)"><mask id="p" fill="#fff"><use xlink:href="#o"/></mask><path fill="#546E7A" mask="url(#p)" d="M-66.073 137.512l-.178-.176L104.984-36.23l.177.176z"/></g><g transform="translate(382 86.687)"><mask id="r" fill="#fff"><use xlink:href="#q"/></mask><path fill="#546E7A" mask="url(#r)" d="M-59.069 144.611l-.178-.176L111.99-29.13l.177.176z"/></g><g transform="translate(382 86.687)"><mask id="t" fill="#fff"><use xlink:href="#s"/></mask><path fill="#546E7A" mask="url(#t)" d="M-52.064 151.712l-.178-.176L118.993-22.03l.177.176z"/></g><g transform="translate(382 86.687)"><mask id="v" fill="#fff"><use xlink:href="#u"/></mask><path fill="#546E7A" mask="url(#v)" d="M-51.893 151.885l-.178-.176L119.164-21.856l.177.176z"/></g><g transform="translate(382 86.687)"><mask id="x" fill="#fff"><use xlink:href="#w"/></mask><path fill="#546E7A" mask="url(#x)" d="M-44.888 158.984l-.178-.176L126.169-14.757l.177.176z"/></g><g transform="translate(382 86.687)"><mask id="z" fill="#fff"><use xlink:href="#y"/></mask><path fill="#546E7A" mask="url(#z)" d="M-37.884 166.085l-.178-.176L133.174-7.657l.177.176z"/></g><g transform="translate(382 86.687)"><mask id="B" fill="#fff"><use xlink:href="#A"/></mask><path fill="#546E7A" mask="url(#B)" d="M-30.88 173.185l-.177-.176L140.178-.556l.177.176z"/></g><g transform="translate(382 92.687)"><mask id="D" fill="#fff"><use xlink:href="#C"/></mask><path fill="#546E7A" mask="url(#D)" d="M-23.875 174.284l-.178-.176L147.183.543l.177.176z"/></g><g transform="translate(382 99.687)"><mask id="F" fill="#fff"><use xlink:href="#E"/></mask><path fill="#546E7A" mask="url(#F)" d="M-16.87 174.384l-.178-.176L154.186.643l.177.176z"/></g><g transform="translate(382 99.687)"><mask id="H" fill="#fff"><use xlink:href="#G"/></mask><path fill="#546E7A" mask="url(#H)" d="M-17.203 174.048l-.178-.176L153.855.307l.177.176z"/></g><g transform="translate(382 106.687)"><mask id="J" fill="#fff"><use xlink:href="#I"/></mask><path fill="#546E7A" mask="url(#J)" d="M-10.198 174.148l-.178-.177L160.86.406l.177.176z"/></g><g transform="translate(382 113.687)"><mask id="L" fill="#fff"><use xlink:href="#K"/></mask><path fill="#546E7A" mask="url(#L)" d="M-3.194 174.247l-.178-.176L167.864.506l.177.176z"/></g><g transform="translate(385 120.687)"><mask id="N" fill="#fff"><use xlink:href="#M"/></mask><path fill="#546E7A" mask="url(#N)" d="M.811 174.347l-.178-.176L171.868.606l.177.176z"/></g><g transform="translate(392 127.687)"><mask id="P" fill="#fff"><use xlink:href="#O"/></mask><path fill="#546E7A" mask="url(#P)" d="M.816 174.447l-.178-.176L171.873.705l.177.176z"/></g><g transform="translate(399 134.687)"><mask id="R" fill="#fff"><use xlink:href="#Q"/></mask><path fill="#546E7A" mask="url(#R)" d="M.82 174.547l-.178-.176L171.877.806l.177.176z"/></g><g transform="translate(399 134.687)"><mask id="T" fill="#fff"><use xlink:href="#S"/></mask><path fill="#546E7A" mask="url(#T)" d="M.82 174.547l-.178-.176L171.877.806l.177.176z"/></g><g transform="translate(406 141.687)"><mask id="V" fill="#fff"><use xlink:href="#U"/></mask><path fill="#546E7A" mask="url(#V)" d="M.825 174.647l-.178-.177L171.882.905l.177.176z"/></g><path d="M502.669 165.156c0-28.021-20.077-47.192-43.355-47.192-23.28 0-43.357 19.17-43.357 47.192 0 27.724 20.077 47.19 43.357 47.19 23.278 0 43.355-19.466 43.355-47.19zm33.754 0c0 44.832-34.626 77.863-77.11 77.863s-77.11-33.031-77.11-77.863c0-45.126 34.626-77.866 77.11-77.866s77.11 32.74 77.11 77.866z" stroke="#546E7A"/><path d="M639.506 88.68a80.831 80.831 0 0 0-11.977-.89h-.112v-1h.1c4.085 0 8.164.302 12.137.901l-.148.988zm-35.978 2.793l-.302-.953a79.088 79.088 0 0 1 11.951-2.796l.152.988a78.157 78.157 0 0 0-11.8 2.761zm59.027 4.481a76.395 76.395 0 0 0-11.238-4.548l.3-.954a77.4 77.4 0 0 1 11.386 4.608l-.448.894zm-80.58 6.408l-.588-.809a76.352 76.352 0 0 1 10.474-6.394l.452.893a75.042 75.042 0 0 0-10.338 6.31zm100.145 7.75a74.525 74.525 0 0 0-9.206-7.873l.586-.81a75.503 75.503 0 0 1 9.33 7.978l-.71.705zm-117.112 9.44l-.816-.579a75.389 75.389 0 0 1 7.886-9.413l.711.703a74.439 74.439 0 0 0-7.78 9.288zm131.12 10.225a75.39 75.39 0 0 0-6.204-10.407l.814-.58a76.261 76.261 0 0 1 6.287 10.545l-.897.442zM554.404 141.26l-.957-.29a77.974 77.974 0 0 1 4.487-11.426l.898.438a76.883 76.883 0 0 0-4.428 11.278zm148.847 11.606a79.92 79.92 0 0 0-2.662-11.824l.954-.293a80.667 80.667 0 0 1 2.697 11.972l-.99.145zm-153.331 12.32v-.03c0-4.116.29-8.223.865-12.207l.99.142a84.79 84.79 0 0 0-.855 12.065l-1 .03zm154.34 12.208l-.99-.145c.578-3.952.87-8.02.87-12.093v-.198h1v.198c0 4.121-.296 8.238-.88 12.238zM553.498 189.4a80.873 80.873 0 0 1-2.694-11.973l.99-.144a79.802 79.802 0 0 0 2.659 11.824l-.955.293zm143.558 11.384l-.9-.44a76.554 76.554 0 0 0 4.46-11.268l.955.292a77.655 77.655 0 0 1-4.515 11.416zM564.3 211.36a76.568 76.568 0 0 1-6.28-10.548l.896-.442a75.745 75.745 0 0 0 6.198 10.41l-.814.58zm118.578 9.382l-.711-.703a75.117 75.117 0 0 0 7.792-9.279l.816.578a76.146 76.146 0 0 1-7.897 9.404zm-101.374 8.013a76.08 76.08 0 0 1-9.31-8l.71-.704a75.232 75.232 0 0 0 9.188 7.896l-.588.808zm81.593 6.39l-.451-.893a75.456 75.456 0 0 0 10.335-6.314l.588.808a76.467 76.467 0 0 1-10.472 6.4zm-59.742 4.655a77.347 77.347 0 0 1-11.371-4.645l.45-.893a76.473 76.473 0 0 0 11.223 4.585l-.302.953zm36.429 2.79l-.152-.988c4-.613 7.97-1.543 11.8-2.764l.302.953a78.713 78.713 0 0 1-11.95 2.8zm-12.24.93h-.014c-4.103 0-8.215-.312-12.224-.925l.15-.988a80.17 80.17 0 0 0 12.073.912l.014 1zm-11.526-123.425l-.279-.96a42.322 42.322 0 0 1 11.791-1.672l.084 1h-.084a41.3 41.3 0 0 0-11.512 1.632zm33.825 4.92a41.276 41.276 0 0 0-10.644-4.873l.283-.959a42.275 42.275 0 0 1 10.902 4.99l-.54.841zm-53.404 7.511l-.746-.664a43.494 43.494 0 0 1 9.123-7.78l.537.843a42.52 42.52 0 0 0-8.914 7.601zm68.818 9.862a44.636 44.636 0 0 0-6.53-9.737l.75-.662a45.73 45.73 0 0 1 6.677 9.954l-.897.445zm-79.3 10.914l-.978-.219a49.394 49.394 0 0 1 4.001-11.292l.894.448a48.334 48.334 0 0 0-3.918 11.063zm85.428 12.056h-1v-.202c0-4.01-.419-7.943-1.246-11.69l.977-.216c.842 3.818 1.27 7.824 1.27 11.906v.202zm-86.459 11.536a54.618 54.618 0 0 1-1.254-11.738l.001-.168h1v.176c0 3.935.413 7.812 1.23 11.515l-.977.215zm81.075 11.642l-.892-.45a48.257 48.257 0 0 0 3.964-11.049l.974.223a49.213 49.213 0 0 1-4.046 11.276zm-70.453 9.63a46.177 46.177 0 0 1-6.66-9.966l.897-.443a45.138 45.138 0 0 0 6.515 9.75l-.752.66zm54.588 8.06l-.537-.845a42.875 42.875 0 0 0 8.917-7.6l.746.666a43.87 43.87 0 0 1-9.126 7.778zm-34.656 4.85a42.29 42.29 0 0 1-10.873-5.054l.545-.838a41.348 41.348 0 0 0 10.617 4.934l-.289.957zm12.05 1.77l-.187-.002v-1l.195.001c3.861 0 7.7-.546 11.401-1.624l.28.961a41.83 41.83 0 0 1-11.689 1.663z" fill="#546E7A"/><path fill="#FFD54F" d="M601.363 296.147h51.675v-52.378h-51.675z"/><path fill="#FFF" d="M616.661 248.061h21.457v-8.585h-21.457z"/><path d="M626.552 261.652c-4.725 0-8.288 3.888-8.288 9.043 0 5.07 3.641 9.043 8.288 9.043s8.288-3.972 8.288-9.043c0-5.155-3.563-9.043-8.288-9.043m0 18.586c-4.928 0-8.788-4.191-8.788-9.543 0-5.352 3.86-9.543 8.788-9.543 4.928 0 8.788 4.19 8.788 9.543 0 5.352-3.86 9.543-8.788 9.543m0-24.626c-8.514 0-14.935 6.484-14.935 15.083 0 8.458 6.56 15.083 14.935 15.083s14.935-6.625 14.935-15.083c0-8.6-6.42-15.083-14.935-15.083m0 30.666c-8.655 0-15.435-6.845-15.435-15.583s6.78-15.583 15.435-15.583c8.655 0 15.435 6.845 15.435 15.583s-6.78 15.583-15.435 15.583M889.79 237.8h32.754V10.692H889.79V237.8zm-1 1h34.754V9.692H888.79V238.8z" fill="#546E7A"/><path fill="#C8E6C9" d="M364.282 98.803h51.675V46.425h-51.675z"/><g transform="translate(364 45.687)"><path d="M11.553 24.463h29.133-29.133z" fill="#C8E6C9"/><mask id="X" fill="#fff"><use xlink:href="#W"/></mask><path fill="#263238" mask="url(#X)" d="M11.553 24.963h29.133v-1H11.553z"/></g><g transform="translate(364 45.687)"><path d="M11.553 31.203h29.133-29.133z" fill="#C8E6C9"/><mask id="Z" fill="#fff"><use xlink:href="#Y"/></mask><path fill="#263238" mask="url(#Z)" d="M11.553 31.703h29.133v-1H11.553z"/></g><path fill="#FFF" d="M380.898 50.718h21.457v-8.586h-21.457z"/><path d="M444.753 63.664l.93 37.448-32.038.819c.147 5.896-4.451 10.797-10.268 10.945-5.816.149-10.652-4.511-10.798-10.407l-.952-38.337 53.126-.468z" fill="#FFD54F"/><path d="M445.616 101.114l-32.038.818c.147 5.897-4.451 10.797-10.268 10.946l46.083-1.178s6.99-1.427 7.926-10.886l-11.703.3z" fill="#FFB300"/><path fill="#FFF" d="M408.858 67.609h21.457v-8.586h-21.457z"/><path fill="#263238" d="M404.175 87.033l-.025-1 30.846-.788.026 1z"/><g transform="translate(-21 -75.313)"><path d="M425.088 156.53h29.133-29.133z" fill="#C8E6C9"/><mask id="ab" fill="#fff"><use xlink:href="#aa"/></mask><path fill="#263238" mask="url(#ab)" d="M425.087 157.03h29.134v-1h-29.134z"/></g><path fill="#ECEFF1" d="M26.442 301.119l164.677-65.36-.19-.494-164.678 65.36zm2.29 5.926l164.677-65.36-.191-.494L28.54 306.55z"/><path fill="#ECEFF1" d="M28.732 307.045l164.677-65.36-.191-.494L28.54 306.55zm36.628 94.817l164.678-65.36-.191-.494-164.677 65.36z"/><path fill="#FFF" d="M87.024 505.424l194.332-77.341-86.779-224.121L.245 281.303z"/><path fill="#ECEFF1" d="M31.02 312.97l164.678-65.36-.191-.493-164.677 65.36z"/><path fill="#ECEFF1" d="M31.02 312.97l164.678-65.36-.191-.493-164.677 65.36zm2.29 5.927l164.677-65.36-.19-.494-164.678 65.36zm2.29 5.926l164.677-65.36-.191-.494-164.677 65.36z"/><path fill="#ECEFF1" d="M35.6 324.823l164.677-65.36-.191-.494-164.677 65.36zm2.289 5.926l164.677-65.36-.191-.494-164.677 65.36z"/><path fill="#ECEFF1" d="M37.889 330.749l164.677-65.36-.191-.494-164.677 65.36zm2.289 5.926l164.677-65.36-.19-.494-164.678 65.36z"/><path fill="#ECEFF1" d="M40.178 336.675l164.677-65.36-.19-.494-164.678 65.36zm2.29 5.926l164.676-65.36-.19-.494-164.678 65.36zm2.289 5.926l164.677-65.36-.191-.494-164.677 65.36z"/><path fill="#ECEFF1" d="M44.757 348.527l164.677-65.36-.191-.494-164.677 65.36zm2.289 5.926l164.677-65.36-.19-.494-164.678 65.36z"/><path fill="#ECEFF1" d="M47.046 354.453l164.677-65.36-.19-.494-164.678 65.36zm2.289 5.927l164.677-65.36-.19-.494-164.678 65.36z"/><path fill="#ECEFF1" d="M49.335 360.38l164.677-65.36-.19-.494-164.678 65.36zm2.29 5.926l164.677-65.36-.191-.494-164.677 65.36zm2.289 5.926l164.677-65.36-.19-.494-164.678 65.36z"/><path fill="#ECEFF1" d="M53.914 372.232l164.677-65.36-.19-.494-164.678 65.36zm2.29 5.926l164.677-65.36-.191-.494-164.678 65.36z"/><path fill="#ECEFF1" d="M56.204 378.158l164.677-65.36-.191-.494-164.678 65.36zm2.289 5.926l164.677-65.36-.191-.494-164.677 65.36z"/><path fill="#ECEFF1" d="M58.493 384.084l164.677-65.36-.191-.494-164.677 65.36zm2.289 5.926l164.677-65.36-.19-.494-164.678 65.36zm2.289 5.926l164.677-65.36-.19-.494-164.678 65.36z"/><path fill="#ECEFF1" d="M63.071 395.936l164.677-65.36-.19-.494-164.678 65.36zm2.289 5.926l164.678-65.36-.191-.494-164.677 65.36zm2.29 5.926l164.677-65.36-.19-.494-164.678 65.36z"/><path fill="#ECEFF1" d="M67.65 407.788l164.677-65.36-.19-.494-164.678 65.36zm2.29 5.926l164.676-65.36-.19-.494-164.678 65.36zm2.289 5.926l164.677-65.36-.191-.494-164.677 65.36z"/><path fill="#ECEFF1" d="M72.229 419.64l164.677-65.36-.191-.494-164.677 65.36zm2.289 5.926l164.677-65.36-.191-.494-164.677 65.36z"/><path fill="#ECEFF1" d="M74.518 425.566l164.677-65.36-.191-.494-164.677 65.36zm2.289 5.927l164.677-65.36-.19-.494-164.678 65.36z"/><path fill="#ECEFF1" d="M76.807 431.493l164.677-65.36-.19-.494-164.678 65.36zm2.29 5.926l164.677-65.36-.191-.494-164.677 65.36zm2.289 5.926l164.677-65.36-.191-.494-164.677 65.36z"/><path fill="#ECEFF1" d="M81.386 443.345l164.677-65.36-.191-.494-164.677 65.36zm2.289 5.925l164.677-65.36-.19-.493-164.678 65.36z"/><path fill="#ECEFF1" d="M83.675 449.27l164.677-65.36-.19-.493-164.678 65.36zm2.29 5.927l164.677-65.36-.191-.494-164.677 65.36z"/><path fill="#ECEFF1" d="M85.965 455.197l164.677-65.36-.191-.494-164.677 65.36zM181.052 216.972a1.563 1.563 0 0 0 2.034.9 1.597 1.597 0 0 0 .889-2.06 1.564 1.564 0 0 0-2.034-.902 1.599 1.599 0 0 0-.89 2.062m-5.846 2.32a1.563 1.563 0 0 0 2.034.901 1.597 1.597 0 0 0 .89-2.06 1.564 1.564 0 0 0-2.035-.903 1.599 1.599 0 0 0-.889 2.062m-5.846 2.321a1.563 1.563 0 0 0 2.034.9 1.597 1.597 0 0 0 .889-2.06 1.564 1.564 0 0 0-2.034-.902 1.599 1.599 0 0 0-.89 2.062"/><path d="M169.359 221.613a1.563 1.563 0 0 0 2.034.9 1.597 1.597 0 0 0 .889-2.06 1.564 1.564 0 0 0-2.034-.902 1.599 1.599 0 0 0-.89 2.062m-5.846 2.32a1.563 1.563 0 0 0 2.034.901 1.597 1.597 0 0 0 .89-2.06 1.564 1.564 0 0 0-2.035-.903 1.599 1.599 0 0 0-.889 2.062m-5.846 2.321a1.563 1.563 0 0 0 2.034.9 1.597 1.597 0 0 0 .889-2.06 1.564 1.564 0 0 0-2.034-.902 1.599 1.599 0 0 0-.89 2.062" fill="#ECEFF1"/><path d="M157.666 226.254a1.563 1.563 0 0 0 2.034.9 1.597 1.597 0 0 0 .889-2.06 1.564 1.564 0 0 0-2.034-.902 1.599 1.599 0 0 0-.89 2.062m-5.845 2.32a1.563 1.563 0 0 0 2.033.901 1.597 1.597 0 0 0 .89-2.061 1.564 1.564 0 0 0-2.035-.902 1.599 1.599 0 0 0-.889 2.062m-5.846 2.321a1.563 1.563 0 0 0 2.034.9 1.597 1.597 0 0 0 .889-2.06 1.564 1.564 0 0 0-2.034-.902 1.599 1.599 0 0 0-.89 2.062" fill="#ECEFF1"/><path d="M145.973 230.895a1.563 1.563 0 0 0 2.034.9 1.597 1.597 0 0 0 .889-2.06 1.564 1.564 0 0 0-2.034-.902 1.599 1.599 0 0 0-.89 2.062m-5.846 2.32a1.563 1.563 0 0 0 2.034.901 1.597 1.597 0 0 0 .89-2.061 1.564 1.564 0 0 0-2.035-.902 1.599 1.599 0 0 0-.889 2.062m-5.846 2.321a1.563 1.563 0 0 0 2.034.9 1.597 1.597 0 0 0 .889-2.06 1.564 1.564 0 0 0-2.034-.902 1.599 1.599 0 0 0-.89 2.062" fill="#ECEFF1"/><path d="M134.28 235.536a1.563 1.563 0 0 0 2.034.9 1.597 1.597 0 0 0 .889-2.06 1.564 1.564 0 0 0-2.034-.902 1.599 1.599 0 0 0-.89 2.062m-5.846 2.32a1.563 1.563 0 0 0 2.034.901 1.597 1.597 0 0 0 .89-2.061 1.564 1.564 0 0 0-2.035-.902 1.599 1.599 0 0 0-.889 2.062m-5.846 2.32a1.563 1.563 0 0 0 2.034.901 1.597 1.597 0 0 0 .889-2.06 1.564 1.564 0 0 0-2.034-.903 1.599 1.599 0 0 0-.89 2.062" fill="#ECEFF1"/><path d="M122.587 240.176a1.563 1.563 0 0 0 2.034.901 1.597 1.597 0 0 0 .889-2.06 1.564 1.564 0 0 0-2.034-.903 1.599 1.599 0 0 0-.89 2.062m-5.846 2.321a1.563 1.563 0 0 0 2.034.9 1.597 1.597 0 0 0 .89-2.06 1.564 1.564 0 0 0-2.035-.902 1.599 1.599 0 0 0-.889 2.062m-5.846 2.32a1.563 1.563 0 0 0 2.034.901 1.597 1.597 0 0 0 .889-2.06 1.564 1.564 0 0 0-2.034-.903 1.599 1.599 0 0 0-.89 2.062" fill="#ECEFF1"/><path d="M110.894 244.817a1.563 1.563 0 0 0 2.034.901 1.597 1.597 0 0 0 .889-2.06 1.564 1.564 0 0 0-2.034-.903 1.599 1.599 0 0 0-.89 2.062m-5.846 2.321a1.563 1.563 0 0 0 2.034.9 1.597 1.597 0 0 0 .89-2.06 1.564 1.564 0 0 0-2.035-.902 1.599 1.599 0 0 0-.889 2.062m-5.847 2.32a1.563 1.563 0 0 0 2.035.901 1.597 1.597 0 0 0 .889-2.06 1.564 1.564 0 0 0-2.034-.903 1.599 1.599 0 0 0-.89 2.062" fill="#ECEFF1"/><path d="M99.2 249.458a1.563 1.563 0 0 0 2.035.901 1.597 1.597 0 0 0 .889-2.06 1.564 1.564 0 0 0-2.034-.903 1.599 1.599 0 0 0-.89 2.062m-5.846 2.321a1.563 1.563 0 0 0 2.034.9 1.597 1.597 0 0 0 .89-2.06 1.564 1.564 0 0 0-2.035-.902 1.599 1.599 0 0 0-.889 2.062m-5.846 2.321a1.563 1.563 0 0 0 2.034.9 1.597 1.597 0 0 0 .889-2.06 1.564 1.564 0 0 0-2.034-.903 1.599 1.599 0 0 0-.89 2.062" fill="#ECEFF1"/><path d="M87.508 254.1a1.563 1.563 0 0 0 2.034.9 1.597 1.597 0 0 0 .889-2.06 1.564 1.564 0 0 0-2.034-.903 1.599 1.599 0 0 0-.89 2.062m-5.846 2.321a1.563 1.563 0 0 0 2.034.9 1.597 1.597 0 0 0 .89-2.06 1.564 1.564 0 0 0-2.035-.902 1.599 1.599 0 0 0-.889 2.062m-5.846 2.32a1.563 1.563 0 0 0 2.034.901 1.597 1.597 0 0 0 .889-2.06 1.564 1.564 0 0 0-2.034-.903 1.599 1.599 0 0 0-.89 2.062" fill="#ECEFF1"/><path d="M75.815 258.74a1.563 1.563 0 0 0 2.034.901 1.597 1.597 0 0 0 .889-2.06 1.564 1.564 0 0 0-2.034-.903 1.599 1.599 0 0 0-.89 2.062m-5.846 2.32a1.563 1.563 0 0 0 2.034.902 1.597 1.597 0 0 0 .89-2.061 1.564 1.564 0 0 0-2.035-.902 1.599 1.599 0 0 0-.889 2.062m-5.846 2.32a1.563 1.563 0 0 0 2.034.901 1.597 1.597 0 0 0 .889-2.06 1.564 1.564 0 0 0-2.034-.903 1.599 1.599 0 0 0-.89 2.062" fill="#ECEFF1"/><path d="M64.122 263.381a1.563 1.563 0 0 0 2.034.901 1.597 1.597 0 0 0 .889-2.06 1.564 1.564 0 0 0-2.034-.903 1.599 1.599 0 0 0-.89 2.062m-5.846 2.321a1.563 1.563 0 0 0 2.034.9 1.597 1.597 0 0 0 .89-2.06 1.564 1.564 0 0 0-2.035-.902 1.599 1.599 0 0 0-.889 2.062m-5.846 2.32a1.563 1.563 0 0 0 2.034.901 1.597 1.597 0 0 0 .889-2.06 1.564 1.564 0 0 0-2.034-.903 1.599 1.599 0 0 0-.89 2.062" fill="#ECEFF1"/><path d="M52.429 268.022a1.563 1.563 0 0 0 2.034.901 1.597 1.597 0 0 0 .889-2.06 1.564 1.564 0 0 0-2.034-.903 1.599 1.599 0 0 0-.89 2.062m-5.846 2.321a1.563 1.563 0 0 0 2.034.9 1.597 1.597 0 0 0 .89-2.06 1.564 1.564 0 0 0-2.035-.902 1.599 1.599 0 0 0-.889 2.062m-5.846 2.32a1.563 1.563 0 0 0 2.034.901 1.597 1.597 0 0 0 .889-2.06 1.564 1.564 0 0 0-2.034-.903 1.599 1.599 0 0 0-.89 2.062" fill="#ECEFF1"/><path d="M40.736 272.663a1.563 1.563 0 0 0 2.034.901 1.597 1.597 0 0 0 .889-2.06 1.564 1.564 0 0 0-2.034-.903 1.599 1.599 0 0 0-.89 2.062m-5.845 2.321a1.563 1.563 0 0 0 2.033.9 1.597 1.597 0 0 0 .89-2.06 1.564 1.564 0 0 0-2.035-.902 1.599 1.599 0 0 0-.889 2.062m-5.846 2.32a1.563 1.563 0 0 0 2.034.901 1.597 1.597 0 0 0 .889-2.06 1.564 1.564 0 0 0-2.034-.903 1.599 1.599 0 0 0-.89 2.062" fill="#ECEFF1"/><path d="M29.043 277.304a1.563 1.563 0 0 0 2.034.901 1.597 1.597 0 0 0 .889-2.06 1.564 1.564 0 0 0-2.034-.903 1.599 1.599 0 0 0-.89 2.062m-5.846 2.321a1.563 1.563 0 0 0 2.034.9 1.597 1.597 0 0 0 .89-2.06 1.564 1.564 0 0 0-2.035-.902 1.599 1.599 0 0 0-.889 2.062m-5.846 2.32a1.563 1.563 0 0 0 2.034.901 1.597 1.597 0 0 0 .889-2.06 1.564 1.564 0 0 0-2.034-.903 1.599 1.599 0 0 0-.89 2.062" fill="#ECEFF1"/><path d="M17.35 281.945a1.563 1.563 0 0 0 2.034.901 1.597 1.597 0 0 0 .889-2.06 1.564 1.564 0 0 0-2.034-.903 1.599 1.599 0 0 0-.89 2.062" fill="#ECEFF1"/><path d="M178.255 207.44l3.314 8.579a.749.749 0 0 0 .974.432.766.766 0 0 0 .427-.988l-3.314-8.578a.75.75 0 0 0-.975-.432.767.767 0 0 0-.426.988m2.827 8.77l-3.314-8.577a1.3 1.3 0 0 1 .722-1.675 1.272 1.272 0 0 1 1.653.733l3.314 8.578a1.3 1.3 0 0 1-.723 1.675 1.27 1.27 0 0 1-1.652-.733m-8.68-6.448l3.314 8.578a.749.749 0 0 0 .974.432.766.766 0 0 0 .427-.988l-3.314-8.578a.75.75 0 0 0-.975-.432.767.767 0 0 0-.426.988m2.827 8.77l-3.314-8.577a1.3 1.3 0 0 1 .722-1.675 1.272 1.272 0 0 1 1.653.733l3.314 8.578a1.3 1.3 0 0 1-.723 1.675 1.27 1.27 0 0 1-1.652-.733m-8.704-6.439l3.314 8.578a.749.749 0 0 0 .974.432.766.766 0 0 0 .427-.988l-3.314-8.578a.75.75 0 0 0-.975-.432.767.767 0 0 0-.426.988m2.827 8.771l-3.314-8.578a1.3 1.3 0 0 1 .722-1.675 1.272 1.272 0 0 1 1.653.733l3.314 8.578a1.3 1.3 0 0 1-.723 1.675 1.27 1.27 0 0 1-1.652-.733m-8.679-6.447l3.314 8.577a.749.749 0 0 0 .974.432.766.766 0 0 0 .427-.988l-3.314-8.578a.75.75 0 0 0-.975-.432.767.767 0 0 0-.426.988m2.827 8.771l-3.314-8.578a1.3 1.3 0 0 1 .722-1.675 1.272 1.272 0 0 1 1.653.733l3.314 8.578a1.3 1.3 0 0 1-.723 1.675 1.27 1.27 0 0 1-1.652-.733m-8.661-6.455l3.314 8.578a.749.749 0 0 0 .974.432.766.766 0 0 0 .427-.988l-3.315-8.578a.75.75 0 0 0-.975-.432.767.767 0 0 0-.425.988m2.827 8.77l-3.315-8.577a1.3 1.3 0 0 1 .722-1.675 1.272 1.272 0 0 1 1.653.733l3.315 8.578a1.3 1.3 0 0 1-.724 1.675 1.27 1.27 0 0 1-1.651-.733m-8.68-6.448l3.314 8.578a.749.749 0 0 0 .974.432.766.766 0 0 0 .427-.988l-3.314-8.578a.75.75 0 0 0-.975-.432.767.767 0 0 0-.426.988m2.827 8.77l-3.314-8.577a1.3 1.3 0 0 1 .722-1.675 1.272 1.272 0 0 1 1.653.733l3.314 8.578a1.3 1.3 0 0 1-.723 1.675 1.27 1.27 0 0 1-1.652-.733m-8.704-6.439l3.314 8.578a.749.749 0 0 0 .974.432.766.766 0 0 0 .427-.988l-3.314-8.578a.75.75 0 0 0-.975-.432.767.767 0 0 0-.426.988m2.827 8.771l-3.314-8.578a1.3 1.3 0 0 1 .722-1.675 1.272 1.272 0 0 1 1.653.733l3.314 8.578a1.3 1.3 0 0 1-.723 1.675 1.27 1.27 0 0 1-1.652-.733m-8.68-6.448l3.314 8.578a.749.749 0 0 0 .974.432.766.766 0 0 0 .427-.988l-3.314-8.578a.75.75 0 0 0-.975-.432.767.767 0 0 0-.426.988m2.827 8.771l-3.314-8.578a1.3 1.3 0 0 1 .722-1.675 1.272 1.272 0 0 1 1.653.733l3.314 8.578a1.3 1.3 0 0 1-.723 1.675 1.27 1.27 0 0 1-1.652-.733m-8.631-6.467l3.314 8.578a.749.749 0 0 0 .974.432.766.766 0 0 0 .427-.988l-3.313-8.578a.75.75 0 0 0-.976-.432.767.767 0 0 0-.425.988m2.826 8.77l-3.314-8.577a1.3 1.3 0 0 1 .722-1.675 1.272 1.272 0 0 1 1.653.733l3.315 8.578a1.3 1.3 0 0 1-.723 1.675 1.27 1.27 0 0 1-1.652-.733m-8.68-6.448l3.314 8.578a.749.749 0 0 0 .974.432.766.766 0 0 0 .427-.988L127 227.784a.75.75 0 0 0-.975-.432.767.767 0 0 0-.426.988m2.827 8.77l-3.314-8.577a1.3 1.3 0 0 1 .722-1.675 1.272 1.272 0 0 1 1.653.733l3.314 8.578a1.3 1.3 0 0 1-.723 1.675 1.27 1.27 0 0 1-1.652-.733m-8.703-6.439l3.314 8.578a.749.749 0 0 0 .974.432.766.766 0 0 0 .427-.988l-3.314-8.578a.75.75 0 0 0-.975-.432.767.767 0 0 0-.426.988m2.827 8.771l-3.314-8.578a1.3 1.3 0 0 1 .722-1.675 1.272 1.272 0 0 1 1.653.733l3.314 8.578a1.3 1.3 0 0 1-.723 1.675 1.27 1.27 0 0 1-1.652-.733m-8.68-6.448l3.314 8.578a.749.749 0 0 0 .974.432.766.766 0 0 0 .427-.988l-3.314-8.578a.75.75 0 0 0-.975-.432.767.767 0 0 0-.426.988m2.827 8.771l-3.314-8.578a1.3 1.3 0 0 1 .722-1.675 1.272 1.272 0 0 1 1.653.733l3.314 8.578a1.3 1.3 0 0 1-.723 1.675 1.27 1.27 0 0 1-1.652-.733m-8.48-6.527l3.314 8.578a.749.749 0 0 0 .974.432.766.766 0 0 0 .427-.988l-3.314-8.578a.75.75 0 0 0-.975-.432.767.767 0 0 0-.426.988m2.827 8.771l-3.314-8.578a1.3 1.3 0 0 1 .722-1.675 1.272 1.272 0 0 1 1.653.733l3.314 8.578a1.3 1.3 0 0 1-.723 1.675 1.27 1.27 0 0 1-1.652-.733m-8.68-6.448l3.314 8.578a.749.749 0 0 0 .974.432.766.766 0 0 0 .427-.988l-3.314-8.578a.75.75 0 0 0-.975-.432.767.767 0 0 0-.426.988m2.827 8.77l-3.314-8.577a1.3 1.3 0 0 1 .722-1.675 1.272 1.272 0 0 1 1.653.733l3.314 8.578a1.3 1.3 0 0 1-.723 1.675 1.27 1.27 0 0 1-1.652-.733m-8.704-6.438l3.314 8.578a.749.749 0 0 0 .974.432.766.766 0 0 0 .427-.988l-3.314-8.578a.75.75 0 0 0-.975-.432.767.767 0 0 0-.426.988m2.827 8.77L96 240.089a1.3 1.3 0 0 1 .722-1.675 1.272 1.272 0 0 1 1.653.733l3.314 8.578a1.3 1.3 0 0 1-.723 1.675 1.27 1.27 0 0 1-1.652-.733m-8.679-6.45l3.313 8.578a.749.749 0 0 0 .975.432.766.766 0 0 0 .427-.988l-3.314-8.578a.75.75 0 0 0-.975-.432.767.767 0 0 0-.427.988m2.828 8.771l-3.315-8.578a1.3 1.3 0 0 1 .722-1.675 1.272 1.272 0 0 1 1.653.733l3.314 8.578a1.3 1.3 0 0 1-.722 1.675 1.27 1.27 0 0 1-1.653-.733m-8.787-6.405l3.314 8.578a.749.749 0 0 0 .974.432.766.766 0 0 0 .427-.988l-3.314-8.578a.75.75 0 0 0-.975-.432.767.767 0 0 0-.426.988m2.827 8.771l-3.314-8.578a1.3 1.3 0 0 1 .722-1.675 1.272 1.272 0 0 1 1.653.733l3.314 8.578a1.3 1.3 0 0 1-.723 1.675 1.27 1.27 0 0 1-1.652-.733m-8.679-6.448l3.314 8.578a.749.749 0 0 0 .974.432.766.766 0 0 0 .427-.988l-3.314-8.578a.75.75 0 0 0-.975-.432.767.767 0 0 0-.426.988m2.827 8.771l-3.314-8.578a1.3 1.3 0 0 1 .722-1.675 1.272 1.272 0 0 1 1.653.733l3.314 8.578a1.3 1.3 0 0 1-.723 1.675 1.27 1.27 0 0 1-1.652-.733m-8.704-6.438l3.314 8.578a.749.749 0 0 0 .974.432.766.766 0 0 0 .427-.988l-3.314-8.578a.75.75 0 0 0-.975-.432.767.767 0 0 0-.426.988m2.827 8.77l-3.314-8.577a1.3 1.3 0 0 1 .722-1.675 1.272 1.272 0 0 1 1.653.733l3.314 8.578a1.3 1.3 0 0 1-.723 1.675 1.27 1.27 0 0 1-1.652-.733m-8.68-6.448l3.314 8.578a.749.749 0 0 0 .974.432.766.766 0 0 0 .427-.988l-3.314-8.578a.75.75 0 0 0-.975-.432.767.767 0 0 0-.426.988m2.827 8.77l-3.314-8.577a1.3 1.3 0 0 1 .722-1.675 1.272 1.272 0 0 1 1.653.733l3.314 8.578a1.3 1.3 0 0 1-.723 1.675 1.27 1.27 0 0 1-1.652-.733m-8.594-6.483l3.314 8.579a.749.749 0 0 0 .974.432.766.766 0 0 0 .427-.988l-3.314-8.578a.75.75 0 0 0-.975-.432.767.767 0 0 0-.426.988m2.827 8.77l-3.314-8.577a1.3 1.3 0 0 1 .722-1.675 1.272 1.272 0 0 1 1.653.733l3.314 8.578a1.3 1.3 0 0 1-.723 1.675 1.27 1.27 0 0 1-1.652-.733m-8.68-6.449l3.314 8.578a.749.749 0 0 0 .974.432.766.766 0 0 0 .427-.988l-3.314-8.578a.75.75 0 0 0-.975-.432.767.767 0 0 0-.426.988m2.827 8.771l-3.314-8.578a1.3 1.3 0 0 1 .722-1.675 1.272 1.272 0 0 1 1.653.733l3.314 8.578a1.3 1.3 0 0 1-.723 1.675 1.27 1.27 0 0 1-1.652-.733m-8.704-6.438l3.314 8.578a.749.749 0 0 0 .974.432.766.766 0 0 0 .427-.988l-3.314-8.578a.75.75 0 0 0-.975-.432.767.767 0 0 0-.426.988m2.827 8.77l-3.314-8.577a1.3 1.3 0 0 1 .722-1.675 1.272 1.272 0 0 1 1.653.733l3.314 8.578a1.3 1.3 0 0 1-.723 1.675 1.27 1.27 0 0 1-1.652-.733m-8.68-6.448l3.315 8.578a.749.749 0 0 0 .974.432.766.766 0 0 0 .427-.988l-3.314-8.578a.75.75 0 0 0-.975-.432.767.767 0 0 0-.426.988m2.826 8.77l-3.314-8.577a1.3 1.3 0 0 1 .722-1.675 1.272 1.272 0 0 1 1.653.733l3.314 8.578a1.3 1.3 0 0 1-.723 1.675 1.27 1.27 0 0 1-1.652-.733m-8.661-6.456l3.314 8.578a.749.749 0 0 0 .974.432.766.766 0 0 0 .427-.988l-3.314-8.578a.75.75 0 0 0-.975-.432.767.767 0 0 0-.426.988m2.827 8.771l-3.314-8.578a1.3 1.3 0 0 1 .722-1.675 1.272 1.272 0 0 1 1.653.733l3.314 8.578a1.3 1.3 0 0 1-.723 1.675 1.27 1.27 0 0 1-1.652-.733m-8.679-6.448l3.314 8.578a.749.749 0 0 0 .974.432.766.766 0 0 0 .427-.988l-3.314-8.578a.75.75 0 0 0-.975-.432.767.767 0 0 0-.426.988m2.827 8.771l-3.314-8.578a1.3 1.3 0 0 1 .722-1.675 1.272 1.272 0 0 1 1.653.733l3.314 8.578a1.3 1.3 0 0 1-.723 1.675 1.27 1.27 0 0 1-1.652-.733m-8.704-6.438l3.314 8.578a.749.749 0 0 0 .974.432.766.766 0 0 0 .427-.988l-3.314-8.578a.75.75 0 0 0-.975-.432.767.767 0 0 0-.426.988m2.827 8.77l-3.314-8.577a1.3 1.3 0 0 1 .722-1.675 1.272 1.272 0 0 1 1.653.733l3.314 8.578a1.3 1.3 0 0 1-.723 1.675 1.27 1.27 0 0 1-1.652-.733m-8.68-6.448l3.314 8.578a.749.749 0 0 0 .974.432.766.766 0 0 0 .427-.988l-3.314-8.578a.75.75 0 0 0-.975-.432.767.767 0 0 0-.426.988m2.827 8.77l-3.314-8.577a1.3 1.3 0 0 1 .722-1.675 1.272 1.272 0 0 1 1.653.733l3.314 8.578a1.3 1.3 0 0 1-.723 1.675 1.27 1.27 0 0 1-1.652-.733m-8.606-6.477l3.314 8.578a.749.749 0 0 0 .974.432.766.766 0 0 0 .427-.988l-3.314-8.578a.75.75 0 0 0-.975-.432.767.767 0 0 0-.426.988m2.827 8.77l-3.314-8.577a1.3 1.3 0 0 1 .722-1.675 1.272 1.272 0 0 1 1.653.733l3.314 8.578a1.3 1.3 0 0 1-.723 1.675 1.27 1.27 0 0 1-1.652-.733" fill="#90A4AE"/><path fill="#81C784" d="M213.688 479.13l-92.064-56.374 78.622-131.985 92.064 56.373z"/><path fill="#FFF" d="M212.968 477.88l-92.066-56.37 78.262-131.388 92.066 56.368z"/><path fill="#81C784" d="M210.038 476.085L115.02 417.91l78.263-131.389 95.016 58.176z"/><path fill="#4CAF50" d="M115.022 417.91l6.956 4.26 78.263-131.39-6.958-4.26z"/><path fill="#CFD8DC" d="M211.384 477.32l-.617-.377 78.517-131.811.617.378zm1.234.756l-.617-.378 78.517-131.81.617.377z"/><path fill="#F44336" d="M23.642 214.795l63.52 27.933 2.474-5.78-63.52-27.933z"/><path fill="#E57373" d="M25.578 217.818l112.859 49.63 4.167-9.737-112.86-49.629z"/><g><g transform="translate(126 250.687)"><mask id="ad" fill="#fff"><use xlink:href="#ac"/></mask><path fill="#E57373" mask="url(#ad)" d="M.696 27.543l22.079 9.709L38.739-.047l-22.08-9.708z"/></g><g transform="translate(94 236.687)"><mask id="af" fill="#fff"><use xlink:href="#ae"/></mask><path fill="#E57373" mask="url(#af)" d="M.942 29.492l31.791 13.98L48.697 6.174l-31.79-13.98z"/></g></g><path d="M135.409 256.447a1.098 1.098 0 0 0 1.452-.581l2.05-4.791-45.573-20.041a1.098 1.098 0 0 0-1.452.58 1.124 1.124 0 0 0 .573 1.473l43.548 19.15-1.171 2.738a1.124 1.124 0 0 0 .573 1.472" fill="#314047"/></g></svg>